<svg width="14" height="14" viewBox="0 0 14 14" fill="none" xmlns="http://www.w3.org/2000/svg">
<g clip-path="url(#clip0_59_4)">
<path d="M13.6019 5.73819C13.6835 6.20803 13.7242 6.68407 13.7235 7.16094C13.7235 9.29069 12.9623 11.0914 11.6375 12.3103H11.6393C10.4808 13.3804 8.88825 13.9999 7 13.9999C5.14349 13.9999 3.36301 13.2624 2.05025 11.9497C0.737498 10.6369 0 8.85646 0 6.99994C0 5.14343 0.737498 3.36295 2.05025 2.0502C3.36301 0.737441 5.14349 -5.6898e-05 7 -5.6898e-05C8.7377 -0.020408 10.4159 0.632422 11.683 1.82169L9.6845 3.82019C8.96208 3.13155 7.99794 2.75444 7 2.77019C5.17388 2.77019 3.6225 4.00219 3.0695 5.66119C2.77629 6.53051 2.77629 7.472 3.0695 8.34132H3.07213C3.62775 9.99769 5.1765 11.2297 7.00263 11.2297C7.94588 11.2297 8.75613 10.9882 9.38438 10.5612H9.38175C9.74655 10.3195 10.0586 10.0064 10.2991 9.64085C10.5395 9.27527 10.7034 8.86475 10.7809 8.43407H7V5.73907H13.6019V5.73819Z" fill="#303030"/>
</g>
<defs>
<clipPath id="clip0_59_4">
<rect width="14" height="14" fill="white"/>
</clipPath>
</defs>
</svg>
