<svg width="14" height="14" viewBox="0 0 14 14" fill="none" xmlns="http://www.w3.org/2000/svg">
<g clip-path="url(#clip0_59_10)">
<path d="M9.82474 4.23685C10.9484 4.23685 12.0261 4.68323 12.8206 5.47779C13.6152 6.27235 14.0616 7.35001 14.0616 8.47369V13.4167H11.237V8.47369C11.237 8.09913 11.0882 7.73991 10.8234 7.47506C10.5585 7.21021 10.1993 7.06141 9.82474 7.06141C9.45018 7.06141 9.09096 7.21021 8.8261 7.47506C8.56125 7.73991 8.41246 8.09913 8.41246 8.47369V13.4167H5.58789V8.47369C5.58789 7.35001 6.03427 6.27235 6.82883 5.47779C7.6234 4.68323 8.70106 4.23685 9.82474 4.23685Z" fill="#303030"/>
<path d="M2.76304 4.94299H-0.0615234V13.4167H2.76304V4.94299Z" fill="#303030"/>
<path d="M1.35076 2.82457C2.13074 2.82457 2.76304 2.19226 2.76304 1.41228C2.76304 0.6323 2.13074 0 1.35076 0C0.570777 0 -0.0615234 0.6323 -0.0615234 1.41228C-0.0615234 2.19226 0.570777 2.82457 1.35076 2.82457Z" fill="#303030"/>
</g>
<defs>
<clipPath id="clip0_59_10">
<rect width="14" height="14" fill="white"/>
</clipPath>
</defs>
</svg>
